# xmcd CD database file
#
# Track frame offsets:
#	150
#	18420
#	38572
#	56857
#
# Disc length: 1029 seconds
#
# Revision: 1
# Processed by: cddbd v1.5.1PL0 Copyright (c) Steve Scherf et al.
# Submitted via: CDex 1.50beta8
#
DISCID=2b040304
DTITLE=鈴木真仁・桜井 智・赤土眞弓 - チャチャにおまかせ
DYEAR=1994
DGENRE=Anime
TTITLE0=チャチャにおまかせ
TTITLE1=Chance!!〜いつも君のそばに〜
TTITLE2=チャチャにおまかせ（カラオケ）
TTITLE3=Chance!!〜いつも君のそばに〜（カラオケ）
EXTD=YEAR: 1994
EXTT0=
EXTT1=
EXTT2=
EXTT3=
PLAYORDER=
